<svg version="1.1" xmlns="http://www.w3.org/2000/svg" xmlns:xlink="http://www.w3.org/1999/xlink" width="573" height="183"><defs/><g><g><path fill="#ffffff" stroke="none" paint-order="stroke fill markers" d=" M 52.38998046875 27.849999999999994 C 52.38998046875 22.96227952000001 56.347782836749985 19 61.22998046875 19 C 66.11217810075001 19 70.06998046875 22.96227952000001 70.06998046875 27.849999999999994 C 70.06998046875 32.73772047999998 66.11217810075001 36.69999999999999 61.22998046875 36.69999999999999 C 56.347782836749985 36.69999999999999 52.38998046875 32.73772047999998 52.38998046875 27.849999999999994 Z"/></g><g><path fill="none" stroke="#000000" paint-order="fill stroke markers" d=" M 52.38998046875 27.849999999999994 C 52.38998046875 22.96227952000001 56.347782836749985 19 61.22998046875 19 C 66.11217810075001 19 70.06998046875 22.96227952000001 70.06998046875 27.849999999999994 C 70.06998046875 32.73772047999998 66.11217810075001 36.69999999999999 61.22998046875 36.69999999999999 C 56.347782836749985 36.69999999999999 52.38998046875 32.73772047999998 52.38998046875 27.849999999999994 Z" stroke-miterlimit="10" stroke-dasharray=""/></g><g><path fill="none" stroke="#000000" paint-order="fill stroke markers" d=" M 61.22998046875 36.69999999999999 L 61.22998046875 54.30000000000001" stroke-miterlimit="10" stroke-dasharray=""/></g><g><path fill="none" stroke="#000000" paint-order="fill stroke markers" d=" M 51.869980468749986 43.30000000000001 L 70.58998046875001 43.30000000000001" stroke-miterlimit="10" stroke-dasharray=""/></g><g><path fill="none" stroke="#000000" paint-order="fill stroke markers" d=" M 61.22998046875 54.30000000000001 L 48.22998046875 72" stroke-miterlimit="10" stroke-dasharray=""/></g><g><path fill="none" stroke="#000000" paint-order="fill stroke markers" d=" M 61.22998046875 54.30000000000001 L 74.22998046875 72" stroke-miterlimit="10" stroke-dasharray=""/></g><g><g><path fill="none" stroke="none"/><text fill="#000000" stroke="none" font-family="Arial" font-size="13px" font-style="normal" font-weight="bold" text-decoration="undefined" x="227.72998046875" y="228.5" text-anchor="middle" dominant-baseline="central" transform="matrix(1 0 0 1 -166 -142)">Administrateur</text></g></g><g><path fill="#C0C0C0" stroke="none" paint-order="stroke fill markers" d=" M 241 42.5 C 241 32.835015999999996 265.1766208 25 295 25 C 324.8233792 25 349 32.835015999999996 349 42.5 C 349 52.164984000000004 324.8233792 60 295 60 C 265.1766208 60 241 52.164984000000004 241 42.5 Z" fill-opacity="0.2"/></g><g><path fill="#ffffff" stroke="none" paint-order="stroke fill markers" d=" M 234 35.5 C 234 25.835015999999996 258.1766208 18 288 18 C 317.8233792 18 342 25.835015999999996 342 35.5 C 342 45.164984000000004 317.8233792 53 288 53 C 258.1766208 53 234 45.164984000000004 234 35.5 Z"/></g><g><path fill="none" stroke="#000000" paint-order="fill stroke markers" d=" M 234 35.5 C 234 25.835015999999996 258.1766208 18 288 18 C 317.8233792 18 342 25.835015999999996 342 35.5 C 342 45.164984000000004 317.8233792 53 288 53 C 258.1766208 53 234 45.164984000000004 234 35.5 Z" stroke-miterlimit="10" stroke-dasharray=""/></g><g><g><path fill="none" stroke="none"/><text fill="#000000" stroke="none" font-family="Arial" font-size="13px" font-style="normal" font-weight="bold" text-decoration="undefined" x="454" y="178.5" text-anchor="middle" dominant-baseline="central" transform="matrix(1 0 0 1 -166 -142)">Créer User</text></g></g><g><path fill="#C0C0C0" stroke="none" paint-order="stroke fill markers" d=" M 233 98.5 C 233 88.835016 262.9969184 81 300 81 C 337.0030816 81 367 88.835016 367 98.5 C 367 108.164984 337.0030816 116 300 116 C 262.9969184 116 233 108.164984 233 98.5 Z" fill-opacity="0.2"/></g><g><path fill="#ffffff" stroke="none" paint-order="stroke fill markers" d=" M 226 91.5 C 226 81.835016 255.99691840000003 74 293 74 C 330.0030816 74 360 81.835016 360 91.5 C 360 101.164984 330.0030816 109 293 109 C 255.99691840000003 109 226 101.164984 226 91.5 Z"/></g><g><path fill="none" stroke="#000000" paint-order="fill stroke markers" d=" M 226 91.5 C 226 81.835016 255.99691840000003 74 293 74 C 330.0030816 74 360 81.835016 360 91.5 C 360 101.164984 330.0030816 109 293 109 C 255.99691840000003 109 226 101.164984 226 91.5 Z" stroke-miterlimit="10" stroke-dasharray=""/></g><g><g><path fill="none" stroke="none"/><text fill="#000000" stroke="none" font-family="Arial" font-size="13px" font-style="normal" font-weight="bold" text-decoration="undefined" x="459" y="234.5" text-anchor="middle" dominant-baseline="central" transform="matrix(1 0 0 1 -166 -142)">Archiver User</text></g></g><g><path fill="#C0C0C0" stroke="none" paint-order="stroke fill markers" d=" M 153 162.5 C 153 152.835016 217.02327359999998 145 296 145 C 374.97672639999996 145 439 152.835016 439 162.5 C 439 172.164984 374.97672639999996 180 296 180 C 217.02327359999998 180 153 172.164984 153 162.5 Z" fill-opacity="0.2"/></g><g><path fill="#ffffff" stroke="none" paint-order="stroke fill markers" d=" M 146 155.5 C 146 145.835016 210.02327359999998 138 289 138 C 367.97672639999996 138 432 145.835016 432 155.5 C 432 165.164984 367.97672639999996 173 289 173 C 210.02327359999998 173 146 165.164984 146 155.5 Z"/></g><g><path fill="none" stroke="#000000" paint-order="fill stroke markers" d=" M 146 155.5 C 146 145.835016 210.02327359999998 138 289 138 C 367.97672639999996 138 432 145.835016 432 155.5 C 432 165.164984 367.97672639999996 173 289 173 C 210.02327359999998 173 146 165.164984 146 155.5 Z" stroke-miterlimit="10" stroke-dasharray=""/></g><g><g><path fill="none" stroke="none"/><text fill="#000000" stroke="none" font-family="Arial" font-size="13px" font-style="normal" font-weight="bold" text-decoration="undefined" x="455" y="298.5" text-anchor="middle" dominant-baseline="central" transform="matrix(1 0 0 1 -166 -142)">Réinitialiser Mot de Passe User</text></g></g><g><path fill="#C0C0C0" stroke="none" paint-order="stroke fill markers" d=" M 441 66.5 C 441 56.835015999999996 469.87763040000004 49 505.5 49 C 541.1223696 49 570 56.835015999999996 570 66.5 C 570 76.164984 541.1223696 84 505.5 84 C 469.87763040000004 84 441 76.164984 441 66.5 Z" fill-opacity="0.2"/></g><g><path fill="#ffffff" stroke="none" paint-order="stroke fill markers" d=" M 434 59.5 C 434 49.835015999999996 462.87763040000004 42 498.5 42 C 534.1223696 42 563 49.835015999999996 563 59.5 C 563 69.164984 534.1223696 77 498.5 77 C 462.87763040000004 77 434 69.164984 434 59.5 Z"/></g><g><path fill="none" stroke="#000000" paint-order="fill stroke markers" d=" M 434 59.5 C 434 49.835015999999996 462.87763040000004 42 498.5 42 C 534.1223696 42 563 49.835015999999996 563 59.5 C 563 69.164984 534.1223696 77 498.5 77 C 462.87763040000004 77 434 69.164984 434 59.5 Z" stroke-miterlimit="10" stroke-dasharray=""/></g><g><g><path fill="none" stroke="none"/><text fill="#000000" stroke="none" font-family="Arial" font-size="13px" font-style="normal" font-weight="bold" text-decoration="undefined" x="664.5" y="202.5" text-anchor="middle" dominant-baseline="central" transform="matrix(1 0 0 1 -166 -142)">Se connecter</text></g></g><g><path fill="none" stroke="#000000" paint-order="fill stroke markers" d=" M 113 53 L 233 41" stroke-miterlimit="10" stroke-dasharray=""/></g><g><path fill="none" stroke="#000000" paint-order="fill stroke markers" d=" M 113 65 L 225 81" stroke-miterlimit="10" stroke-dasharray=""/></g><g><path fill="none" stroke="#000000" paint-order="fill stroke markers" d=" M 113 80 L 247 137" stroke-miterlimit="10" stroke-dasharray=""/></g><g><path fill="none" stroke="#000000" paint-order="fill stroke markers" d=" M 343 41 L 433 52" stroke-miterlimit="10" stroke-dasharray="3"/></g><g><path fill="none" stroke="#000000" paint-order="fill stroke markers" d=" M 422.4016952637364 54.945494307801965 L 433 52 L 423.42308785291345 46.588645850899695" stroke-miterlimit="10" stroke-dasharray=""/></g><g><rect fill="#ffffff" stroke="none" x="530" y="152" width="55.65625" height="13" transform="matrix(1 0 0 1 -166 -142)"/></g><g><g><path fill="none" stroke="none"/><text fill="#000000" stroke="none" font-family="Arial" font-size="13px" font-style="normal" font-weight="normal" text-decoration="undefined" x="557.828125" y="158.5" text-anchor="middle" dominant-baseline="central" transform="matrix(1 0 0 1 -166 -142)">«include»</text></g></g><g><path fill="none" stroke="#000000" paint-order="fill stroke markers" d=" M 361 80 L 433 69" stroke-miterlimit="10" stroke-dasharray="3"/></g><g><path fill="none" stroke="#000000" paint-order="fill stroke markers" d=" M 423.58963631297377 74.69605611611206 L 433 69 L 422.3181481177502 66.37358792919403" stroke-miterlimit="10" stroke-dasharray=""/></g><g><rect fill="#ffffff" stroke="none" x="531" y="180" width="55.65625" height="13" transform="matrix(1 0 0 1 -166 -142)"/></g><g><g><path fill="none" stroke="none"/><text fill="#000000" stroke="none" font-family="Arial" font-size="13px" font-style="normal" font-weight="normal" text-decoration="undefined" x="558.828125" y="186.5" text-anchor="middle" dominant-baseline="central" transform="matrix(1 0 0 1 -166 -142)">«include»</text></g></g><g><path fill="none" stroke="#000000" paint-order="fill stroke markers" d=" M 328 137 L 457 78" stroke-miterlimit="10" stroke-dasharray="3"/></g><g><path fill="none" stroke="#000000" paint-order="fill stroke markers" d=" M 449.5089301352924 86.05505259337701 L 457 78 L 446.00723138873184 78.39879601191421" stroke-miterlimit="10" stroke-dasharray=""/></g><g><rect fill="#ffffff" stroke="none" x="518" y="215" width="55.65625" height="13" transform="matrix(1 0 0 1 -166 -142)"/></g><g><g><path fill="none" stroke="none"/><text fill="#000000" stroke="none" font-family="Arial" font-size="13px" font-style="normal" font-weight="normal" text-decoration="undefined" x="545.828125" y="221.5" text-anchor="middle" dominant-baseline="central" transform="matrix(1 0 0 1 -166 -142)">«include»</text></g></g></g></svg>