<svg version="1.1" xmlns="http://www.w3.org/2000/svg" xmlns:xlink="http://www.w3.org/1999/xlink" width="964.33056640625" height="621"><defs/><g><g><rect fill="#C0C0C0" stroke="none" x="455" y="23" width="200" height="159" transform="matrix(1 0 0 1 -110 -6)" fill-opacity="0.2"/></g><g><rect fill="#ffffff" stroke="none" x="448" y="16" width="200" height="159" transform="matrix(1 0 0 1 -110 -6)"/></g><g><path fill="none" stroke="#000000" paint-order="fill stroke markers" d=" M 338 10 L 538 10 L 538 169 L 338 169 L 338 10 Z Z" stroke-miterlimit="10" stroke-dasharray=""/></g><g><path fill="none" stroke="#000000" paint-order="fill stroke markers" d=" M 338 48 L 538 48" stroke-miterlimit="10" stroke-dasharray=""/></g><g><path fill="none" stroke="#000000" paint-order="fill stroke markers" d=" M 338 146 L 538 146" stroke-miterlimit="10" stroke-dasharray=""/></g><g><g><path fill="none" stroke="none"/><text fill="#000000" stroke="none" font-family="Arial" font-size="13px" font-style="normal" font-weight="normal" text-decoration="undefined" x="548.5" y="27.5" text-anchor="middle" dominant-baseline="central" transform="matrix(1 0 0 1 -110 -6)">«Abstract»</text></g></g><g><g><path fill="none" stroke="none"/><text fill="#000000" stroke="none" font-family="Arial" font-size="13px" font-style="italic" font-weight="bold" text-decoration="undefined" x="548.5" y="42.5" text-anchor="middle" dominant-baseline="central" transform="matrix(1 0 0 1 -110 -6)">User</text></g></g><g><g><path fill="none" stroke="none"/><text fill="#000000" stroke="none" font-family="Arial" font-size="13px" font-style="normal" font-weight="normal" text-decoration="undefined" x="453" y="65.5" text-anchor="start" dominant-baseline="central" transform="matrix(1 0 0 1 -110 -6)">+Nom</text></g></g><g><g><path fill="none" stroke="none"/><text fill="#000000" stroke="none" font-family="Arial" font-size="13px" font-style="normal" font-weight="normal" text-decoration="undefined" x="453" y="80.5" text-anchor="start" dominant-baseline="central" transform="matrix(1 0 0 1 -110 -6)">+Prénom</text></g></g><g><g><path fill="none" stroke="none"/><text fill="#000000" stroke="none" font-family="Arial" font-size="13px" font-style="normal" font-weight="normal" text-decoration="undefined" x="453" y="95.5" text-anchor="start" dominant-baseline="central" transform="matrix(1 0 0 1 -110 -6)">+CIN</text></g></g><g><g><path fill="none" stroke="none"/><text fill="#000000" stroke="none" font-family="Arial" font-size="13px" font-style="normal" font-weight="normal" text-decoration="undefined" x="453" y="110.5" text-anchor="start" dominant-baseline="central" transform="matrix(1 0 0 1 -110 -6)">+Mail</text></g></g><g><g><path fill="none" stroke="none"/><text fill="#000000" stroke="none" font-family="Arial" font-size="13px" font-style="normal" font-weight="normal" text-decoration="undefined" x="453" y="125.5" text-anchor="start" dominant-baseline="central" transform="matrix(1 0 0 1 -110 -6)">+Rôle</text></g></g><g><g><path fill="none" stroke="none"/><text fill="#000000" stroke="none" font-family="Arial" font-size="13px" font-style="normal" font-weight="normal" text-decoration="undefined" x="453" y="140.5" text-anchor="start" dominant-baseline="central" transform="matrix(1 0 0 1 -110 -6)">+Date Embauche</text></g></g><g><g><path fill="none" stroke="none"/><text fill="#000000" stroke="none" font-family="Arial" font-size="13px" font-style="normal" font-weight="normal" text-decoration="undefined" x="453" y="163.5" text-anchor="start" dominant-baseline="central" transform="matrix(1 0 0 1 -110 -6)">+SeConnecter()</text></g></g><g><rect fill="#C0C0C0" stroke="none" x="127" y="287" width="151.33056640625" height="103" transform="matrix(1 0 0 1 -110 -6)" fill-opacity="0.2"/></g><g><rect fill="#ffffff" stroke="none" x="120" y="280" width="151.33056640625" height="103" transform="matrix(1 0 0 1 -110 -6)"/></g><g><path fill="none" stroke="#000000" paint-order="fill stroke markers" d=" M 10 274 L 161.33056640625 274 L 161.33056640625 377 L 10 377 L 10 274 Z Z" stroke-miterlimit="10" stroke-dasharray=""/></g><g><path fill="none" stroke="#000000" paint-order="fill stroke markers" d=" M 10 299 L 161.33056640625 299" stroke-miterlimit="10" stroke-dasharray=""/></g><g><path fill="none" stroke="#000000" paint-order="fill stroke markers" d=" M 10 309 L 161.33056640625 309" stroke-miterlimit="10" stroke-dasharray=""/></g><g><g><path fill="none" stroke="none"/><text fill="#000000" stroke="none" font-family="Arial" font-size="13px" font-style="normal" font-weight="bold" text-decoration="undefined" x="196.165283203125" y="293.5" text-anchor="middle" dominant-baseline="central" transform="matrix(1 0 0 1 -110 -6)">Médecin Radiologue</text></g></g><g><g><path fill="none" stroke="none"/><text fill="#000000" stroke="none" font-family="Arial" font-size="13px" font-style="normal" font-weight="normal" text-decoration="undefined" x="125" y="326.5" text-anchor="start" dominant-baseline="central" transform="matrix(1 0 0 1 -110 -6)">+ConsulterPatient()</text></g></g><g><g><path fill="none" stroke="none"/><text fill="#000000" stroke="none" font-family="Arial" font-size="13px" font-style="normal" font-weight="normal" text-decoration="undefined" x="125" y="341.5" text-anchor="start" dominant-baseline="central" transform="matrix(1 0 0 1 -110 -6)">+ConsulterRapport()</text></g></g><g><g><path fill="none" stroke="none"/><text fill="#000000" stroke="none" font-family="Arial" font-size="13px" font-style="normal" font-weight="normal" text-decoration="undefined" x="125" y="356.5" text-anchor="start" dominant-baseline="central" transform="matrix(1 0 0 1 -110 -6)">+ModifierRapport()</text></g></g><g><g><path fill="none" stroke="none"/><text fill="#000000" stroke="none" font-family="Arial" font-size="13px" font-style="normal" font-weight="normal" text-decoration="undefined" x="125" y="371.5" text-anchor="start" dominant-baseline="central" transform="matrix(1 0 0 1 -110 -6)">+ValiderRapport()</text></g></g><g><path fill="none" stroke="#000000" paint-order="fill stroke markers" d=" M 162 273 L 337 157" stroke-miterlimit="10" stroke-dasharray=""/></g><g><path fill="#FFFFFF" stroke="none" paint-order="stroke fill markers" d=" M 324.7100756502974 175.24713017103204 L 337 157 L 315.40704167092525 161.21238063318606"/></g><g><path fill="none" stroke="#000000" paint-order="fill stroke markers" d=" M 324.7100756502974 175.24713017103204 L 337 157 L 315.40704167092525 161.21238063318606 L 324.7100756502974 175.24713017103204" stroke-miterlimit="10" stroke-dasharray=""/></g><g><rect fill="#C0C0C0" stroke="none" x="919" y="263" width="151.33056640625" height="73" transform="matrix(1 0 0 1 -110 -6)" fill-opacity="0.2"/></g><g><rect fill="#ffffff" stroke="none" x="912" y="256" width="151.33056640625" height="73" transform="matrix(1 0 0 1 -110 -6)"/></g><g><path fill="none" stroke="#000000" paint-order="fill stroke markers" d=" M 802 250 L 953.33056640625 250 L 953.33056640625 323 L 802 323 L 802 250 Z Z" stroke-miterlimit="10" stroke-dasharray=""/></g><g><path fill="none" stroke="#000000" paint-order="fill stroke markers" d=" M 802 275 L 953.33056640625 275" stroke-miterlimit="10" stroke-dasharray=""/></g><g><path fill="none" stroke="#000000" paint-order="fill stroke markers" d=" M 802 285 L 953.33056640625 285" stroke-miterlimit="10" stroke-dasharray=""/></g><g><g><path fill="none" stroke="none"/><text fill="#000000" stroke="none" font-family="Arial" font-size="13px" font-style="normal" font-weight="bold" text-decoration="undefined" x="988.165283203125" y="269.5" text-anchor="middle" dominant-baseline="central" transform="matrix(1 0 0 1 -110 -6)">Technicien Radiologue</text></g></g><g><g><path fill="none" stroke="none"/><text fill="#000000" stroke="none" font-family="Arial" font-size="13px" font-style="normal" font-weight="normal" text-decoration="undefined" x="917" y="302.5" text-anchor="start" dominant-baseline="central" transform="matrix(1 0 0 1 -110 -6)">+AjouterPatient()</text></g></g><g><g><path fill="none" stroke="none"/><text fill="#000000" stroke="none" font-family="Arial" font-size="13px" font-style="normal" font-weight="normal" text-decoration="undefined" x="917" y="317.5" text-anchor="start" dominant-baseline="central" transform="matrix(1 0 0 1 -110 -6)">+AjouterImagerie()</text></g></g><g><rect fill="#C0C0C0" stroke="none" x="511" y="279" width="122.328125" height="88" transform="matrix(1 0 0 1 -110 -6)" fill-opacity="0.2"/></g><g><rect fill="#ffffff" stroke="none" x="504" y="272" width="122.328125" height="88" transform="matrix(1 0 0 1 -110 -6)"/></g><g><path fill="none" stroke="#000000" paint-order="fill stroke markers" d=" M 394 266 L 516.328125 266 L 516.328125 354 L 394 354 L 394 266 Z Z" stroke-miterlimit="10" stroke-dasharray=""/></g><g><path fill="none" stroke="#000000" paint-order="fill stroke markers" d=" M 394 291 L 516.328125 291" stroke-miterlimit="10" stroke-dasharray=""/></g><g><path fill="none" stroke="#000000" paint-order="fill stroke markers" d=" M 394 301 L 516.328125 301" stroke-miterlimit="10" stroke-dasharray=""/></g><g><g><path fill="none" stroke="none"/><text fill="#000000" stroke="none" font-family="Arial" font-size="13px" font-style="normal" font-weight="bold" text-decoration="undefined" x="565.6640625" y="285.5" text-anchor="middle" dominant-baseline="central" transform="matrix(1 0 0 1 -110 -6)">Administrateur</text></g></g><g><g><path fill="none" stroke="none"/><text fill="#000000" stroke="none" font-family="Arial" font-size="13px" font-style="normal" font-weight="normal" text-decoration="undefined" x="509" y="318.5" text-anchor="start" dominant-baseline="central" transform="matrix(1 0 0 1 -110 -6)">+CréerUser()</text></g></g><g><g><path fill="none" stroke="none"/><text fill="#000000" stroke="none" font-family="Arial" font-size="13px" font-style="normal" font-weight="normal" text-decoration="undefined" x="509" y="333.5" text-anchor="start" dominant-baseline="central" transform="matrix(1 0 0 1 -110 -6)">+ArchiverUser()</text></g></g><g><g><path fill="none" stroke="none"/><text fill="#000000" stroke="none" font-family="Arial" font-size="13px" font-style="normal" font-weight="normal" text-decoration="undefined" x="509" y="348.5" text-anchor="start" dominant-baseline="central" transform="matrix(1 0 0 1 -110 -6)">+RéinitialiserMDP()</text></g></g><g><path fill="none" stroke="#000000" paint-order="fill stroke markers" d=" M 801 252 L 539 134" stroke-miterlimit="10" stroke-dasharray=""/></g><g><path fill="#FFFFFF" stroke="none" paint-order="stroke fill markers" d=" M 560.9897866829617 134.67028474385182 L 539 134 L 554.0751643926643 150.02309016807135"/></g><g><path fill="none" stroke="#000000" paint-order="fill stroke markers" d=" M 560.9897866829617 134.67028474385182 L 539 134 L 554.0751643926643 150.02309016807135 L 560.9897866829617 134.67028474385182" stroke-miterlimit="10" stroke-dasharray=""/></g><g><path fill="none" stroke="#000000" paint-order="fill stroke markers" d=" M 452 265 L 444 170" stroke-miterlimit="10" stroke-dasharray=""/></g><g><path fill="#FFFFFF" stroke="none" paint-order="stroke fill markers" d=" M 454.09491354263037 189.54719214022356 L 444 170 L 437.31622970597743 190.96013393699434"/></g><g><path fill="none" stroke="#000000" paint-order="fill stroke markers" d=" M 454.09491354263037 189.54719214022356 L 444 170 L 437.31622970597743 190.96013393699434 L 454.09491354263037 189.54719214022356" stroke-miterlimit="10" stroke-dasharray=""/></g><g><rect fill="#C0C0C0" stroke="none" x="495" y="431" width="125.248046875" height="118" transform="matrix(1 0 0 1 -110 -6)" fill-opacity="0.2"/></g><g><rect fill="#ffffff" stroke="none" x="488" y="424" width="125.248046875" height="118" transform="matrix(1 0 0 1 -110 -6)"/></g><g><path fill="none" stroke="#000000" paint-order="fill stroke markers" d=" M 378 418 L 503.248046875 418 L 503.248046875 536 L 378 536 L 378 418 Z Z" stroke-miterlimit="10" stroke-dasharray=""/></g><g><path fill="none" stroke="#000000" paint-order="fill stroke markers" d=" M 378 443 L 503.248046875 443" stroke-miterlimit="10" stroke-dasharray=""/></g><g><path fill="none" stroke="#000000" paint-order="fill stroke markers" d=" M 378 526 L 503.248046875 526" stroke-miterlimit="10" stroke-dasharray=""/></g><g><g><path fill="none" stroke="none"/><text fill="#000000" stroke="none" font-family="Arial" font-size="13px" font-style="normal" font-weight="bold" text-decoration="undefined" x="551.1240234375" y="437.5" text-anchor="middle" dominant-baseline="central" transform="matrix(1 0 0 1 -110 -6)">Patient</text></g></g><g><g><path fill="none" stroke="none"/><text fill="#000000" stroke="none" font-family="Arial" font-size="13px" font-style="normal" font-weight="normal" text-decoration="undefined" x="493" y="460.5" text-anchor="start" dominant-baseline="central" transform="matrix(1 0 0 1 -110 -6)">+Nom</text></g></g><g><g><path fill="none" stroke="none"/><text fill="#000000" stroke="none" font-family="Arial" font-size="13px" font-style="normal" font-weight="normal" text-decoration="undefined" x="493" y="475.5" text-anchor="start" dominant-baseline="central" transform="matrix(1 0 0 1 -110 -6)">+Prénom</text></g></g><g><g><path fill="none" stroke="none"/><text fill="#000000" stroke="none" font-family="Arial" font-size="13px" font-style="normal" font-weight="normal" text-decoration="undefined" x="493" y="490.5" text-anchor="start" dominant-baseline="central" transform="matrix(1 0 0 1 -110 -6)">+CIN</text></g></g><g><g><path fill="none" stroke="none"/><text fill="#000000" stroke="none" font-family="Arial" font-size="13px" font-style="normal" font-weight="normal" text-decoration="undefined" x="493" y="505.5" text-anchor="start" dominant-baseline="central" transform="matrix(1 0 0 1 -110 -6)">+Mail</text></g></g><g><g><path fill="none" stroke="none"/><text fill="#000000" stroke="none" font-family="Arial" font-size="13px" font-style="normal" font-weight="normal" text-decoration="undefined" x="493" y="520.5" text-anchor="start" dominant-baseline="central" transform="matrix(1 0 0 1 -110 -6)">+Référence Dossier</text></g></g><g><rect fill="#C0C0C0" stroke="none" x="255" y="551" width="73.2353515625" height="73" transform="matrix(1 0 0 1 -110 -6)" fill-opacity="0.2"/></g><g><rect fill="#ffffff" stroke="none" x="248" y="544" width="73.2353515625" height="73" transform="matrix(1 0 0 1 -110 -6)"/></g><g><path fill="none" stroke="#000000" paint-order="fill stroke markers" d=" M 138 538 L 211.2353515625 538 L 211.2353515625 611 L 138 611 L 138 538 Z Z" stroke-miterlimit="10" stroke-dasharray=""/></g><g><path fill="none" stroke="#000000" paint-order="fill stroke markers" d=" M 138 563 L 211.2353515625 563" stroke-miterlimit="10" stroke-dasharray=""/></g><g><path fill="none" stroke="#000000" paint-order="fill stroke markers" d=" M 138 601 L 211.2353515625 601" stroke-miterlimit="10" stroke-dasharray=""/></g><g><g><path fill="none" stroke="none"/><text fill="#000000" stroke="none" font-family="Arial" font-size="13px" font-style="normal" font-weight="bold" text-decoration="undefined" x="285.11767578125" y="557.5" text-anchor="middle" dominant-baseline="central" transform="matrix(1 0 0 1 -110 -6)">Rapport</text></g></g><g><g><path fill="none" stroke="none"/><text fill="#000000" stroke="none" font-family="Arial" font-size="13px" font-style="normal" font-weight="normal" text-decoration="undefined" x="253" y="580.5" text-anchor="start" dominant-baseline="central" transform="matrix(1 0 0 1 -110 -6)">+Date</text></g></g><g><g><path fill="none" stroke="none"/><text fill="#000000" stroke="none" font-family="Arial" font-size="13px" font-style="normal" font-weight="normal" text-decoration="undefined" x="253" y="595.5" text-anchor="start" dominant-baseline="central" transform="matrix(1 0 0 1 -110 -6)">+Imagerie</text></g></g><g><path fill="none" stroke="#000000" paint-order="fill stroke markers" d=" M 212 560 L 377 500" stroke-miterlimit="10" stroke-dasharray=""/></g><g><path fill="#FFFFFF" stroke="none" paint-order="stroke fill markers" d=" M 368.8877584958123 507.4291007381604 L 377 500 L 366.0106115116948 499.5169465318371 L 356.3245446832544 507.5183473879075"/></g><g><path fill="none" stroke="#000000" paint-order="fill stroke markers" d=" M 368.8877584958123 507.4291007381604 L 377 500 L 366.0106115116948 499.5169465318371 L 356.3245446832544 507.5183473879075 L 368.8877584958123 507.4291007381604" stroke-miterlimit="10" stroke-dasharray=""/></g><g><rect fill="#ffffff" stroke="none" x="337" y="564" width="19.5126953125" height="13" transform="matrix(1 0 0 1 -110 -6)"/></g><g><g><path fill="none" stroke="none"/><text fill="#000000" stroke="none" font-family="Arial" font-size="13px" font-style="normal" font-weight="normal" text-decoration="undefined" x="346.75634765625" y="570.5" text-anchor="middle" dominant-baseline="central" transform="matrix(1 0 0 1 -110 -6)">0..*</text></g></g><g><rect fill="#ffffff" stroke="none" x="467" y="519" width="7.22998046875" height="13" transform="matrix(1 0 0 1 -110 -6)"/></g><g><g><path fill="none" stroke="none"/><text fill="#000000" stroke="none" font-family="Arial" font-size="13px" font-style="normal" font-weight="normal" text-decoration="undefined" x="470.614990234375" y="525.5" text-anchor="middle" dominant-baseline="central" transform="matrix(1 0 0 1 -110 -6)">1</text></g></g><g><path fill="none" stroke="#000000" paint-order="fill stroke markers" d=" M 393 313 L 162 322" stroke-miterlimit="10" stroke-dasharray=""/></g><g><rect fill="#ffffff" stroke="none" x="477" y="301" width="7.22998046875" height="13" transform="matrix(1 0 0 1 -110 -6)"/></g><g><g><path fill="none" stroke="none"/><text fill="#000000" stroke="none" font-family="Arial" font-size="13px" font-style="normal" font-weight="normal" text-decoration="undefined" x="480.614990234375" y="307.5" text-anchor="middle" dominant-baseline="central" transform="matrix(1 0 0 1 -110 -6)">1</text></g></g><g><rect fill="#ffffff" stroke="none" x="284" y="308" width="19.5126953125" height="13" transform="matrix(1 0 0 1 -110 -6)"/></g><g><g><path fill="none" stroke="none"/><text fill="#000000" stroke="none" font-family="Arial" font-size="13px" font-style="normal" font-weight="normal" text-decoration="undefined" x="293.75634765625" y="314.5" text-anchor="middle" dominant-baseline="central" transform="matrix(1 0 0 1 -110 -6)">0..*</text></g></g><g><path fill="none" stroke="#000000" paint-order="fill stroke markers" d=" M 517 306 L 801 290" stroke-miterlimit="10" stroke-dasharray=""/></g><g><rect fill="#ffffff" stroke="none" x="646" y="317" width="7.22998046875" height="13" transform="matrix(1 0 0 1 -110 -6)"/></g><g><g><path fill="none" stroke="none"/><text fill="#000000" stroke="none" font-family="Arial" font-size="13px" font-style="normal" font-weight="normal" text-decoration="undefined" x="649.614990234375" y="323.5" text-anchor="middle" dominant-baseline="central" transform="matrix(1 0 0 1 -110 -6)">1</text></g></g><g><rect fill="#ffffff" stroke="none" x="881" y="303" width="19.5126953125" height="13" transform="matrix(1 0 0 1 -110 -6)"/></g><g><g><path fill="none" stroke="none"/><text fill="#000000" stroke="none" font-family="Arial" font-size="13px" font-style="normal" font-weight="normal" text-decoration="undefined" x="890.75634765625" y="309.5" text-anchor="middle" dominant-baseline="central" transform="matrix(1 0 0 1 -110 -6)">0..*</text></g></g><g><path fill="none" stroke="#000000" paint-order="fill stroke markers" d=" M 162 358 L 377 450" stroke-miterlimit="10" stroke-dasharray=""/></g><g><rect fill="#ffffff" stroke="none" x="277" y="378" width="19.5126953125" height="13" transform="matrix(1 0 0 1 -110 -6)"/></g><g><g><path fill="none" stroke="none"/><text fill="#000000" stroke="none" font-family="Arial" font-size="13px" font-style="normal" font-weight="normal" text-decoration="undefined" x="286.75634765625" y="384.5" text-anchor="middle" dominant-baseline="central" transform="matrix(1 0 0 1 -110 -6)">0..*</text></g></g><g><rect fill="#ffffff" stroke="none" x="453" y="452" width="19.5126953125" height="13" transform="matrix(1 0 0 1 -110 -6)"/></g><g><g><path fill="none" stroke="none"/><text fill="#000000" stroke="none" font-family="Arial" font-size="13px" font-style="normal" font-weight="normal" text-decoration="undefined" x="462.75634765625" y="458.5" text-anchor="middle" dominant-baseline="central" transform="matrix(1 0 0 1 -110 -6)">0..*</text></g></g><g><path fill="none" stroke="#000000" paint-order="fill stroke markers" d=" M 801 319 L 504 449" stroke-miterlimit="10" stroke-dasharray=""/></g><g><rect fill="#ffffff" stroke="none" x="879" y="318" width="7.22998046875" height="13" transform="matrix(1 0 0 1 -110 -6)"/></g><g><g><path fill="none" stroke="none"/><text fill="#000000" stroke="none" font-family="Arial" font-size="13px" font-style="normal" font-weight="normal" text-decoration="undefined" x="882.614990234375" y="324.5" text-anchor="middle" dominant-baseline="central" transform="matrix(1 0 0 1 -110 -6)">1</text></g></g><g><rect fill="#ffffff" stroke="none" x="619" y="428" width="19.5126953125" height="13" transform="matrix(1 0 0 1 -110 -6)"/></g><g><g><path fill="none" stroke="none"/><text fill="#000000" stroke="none" font-family="Arial" font-size="13px" font-style="normal" font-weight="normal" text-decoration="undefined" x="628.75634765625" y="434.5" text-anchor="middle" dominant-baseline="central" transform="matrix(1 0 0 1 -110 -6)">0..*</text></g></g></g></svg>