<svg version="1.1" xmlns="http://www.w3.org/2000/svg" xmlns:xlink="http://www.w3.org/1999/xlink" width="805" height="231"><defs/><g><g><path fill="#ffffff" stroke="none" paint-order="stroke fill markers" d=" M 69.360439453125 83.85000000000002 C 69.360439453125 78.96227952000004 73.31824182112499 75 78.200439453125 75 C 83.08263708512501 75 87.040439453125 78.96227952000004 87.040439453125 83.85000000000002 C 87.040439453125 88.73772048000001 83.08263708512501 92.69999999999999 78.200439453125 92.69999999999999 C 73.31824182112499 92.69999999999999 69.360439453125 88.73772048000001 69.360439453125 83.85000000000002 Z"/></g><g><path fill="none" stroke="#000000" paint-order="fill stroke markers" d=" M 69.360439453125 83.85000000000002 C 69.360439453125 78.96227952000004 73.31824182112499 75 78.200439453125 75 C 83.08263708512501 75 87.040439453125 78.96227952000004 87.040439453125 83.85000000000002 C 87.040439453125 88.73772048000001 83.08263708512501 92.69999999999999 78.200439453125 92.69999999999999 C 73.31824182112499 92.69999999999999 69.360439453125 88.73772048000001 69.360439453125 83.85000000000002 Z" stroke-miterlimit="10" stroke-dasharray=""/></g><g><path fill="none" stroke="#000000" paint-order="fill stroke markers" d=" M 78.200439453125 92.69999999999999 L 78.200439453125 110.30000000000001" stroke-miterlimit="10" stroke-dasharray=""/></g><g><path fill="none" stroke="#000000" paint-order="fill stroke markers" d=" M 68.84043945312499 99.30000000000001 L 87.56043945312501 99.30000000000001" stroke-miterlimit="10" stroke-dasharray=""/></g><g><path fill="none" stroke="#000000" paint-order="fill stroke markers" d=" M 78.200439453125 110.30000000000001 L 65.200439453125 128" stroke-miterlimit="10" stroke-dasharray=""/></g><g><path fill="none" stroke="#000000" paint-order="fill stroke markers" d=" M 78.200439453125 110.30000000000001 L 91.200439453125 128" stroke-miterlimit="10" stroke-dasharray=""/></g><g><g><path fill="none" stroke="none"/><text fill="#000000" stroke="none" font-family="Arial" font-size="13px" font-style="normal" font-weight="bold" text-decoration="undefined" x="204.700439453125" y="364.5" text-anchor="middle" dominant-baseline="central" transform="matrix(1 0 0 1 -126 -222)">Médecin Radiologue</text></g></g><g><path fill="#C0C0C0" stroke="none" paint-order="stroke fill markers" d=" M 321 34.5 C 321 24.835015999999996 369.5770992 17 429.5 17 C 489.4229008 17 538 24.835015999999996 538 34.5 C 538 44.164984000000004 489.4229008 52 429.5 52 C 369.5770992 52 321 44.164984000000004 321 34.5 Z" fill-opacity="0.2"/></g><g><path fill="#ffffff" stroke="none" paint-order="stroke fill markers" d=" M 314 27.5 C 314 17.835015999999996 362.5770992 10 422.5 10 C 482.4229008 10 531 17.835015999999996 531 27.5 C 531 37.164984000000004 482.4229008 45 422.5 45 C 362.5770992 45 314 37.164984000000004 314 27.5 Z"/></g><g><path fill="none" stroke="#000000" paint-order="fill stroke markers" d=" M 314 27.5 C 314 17.835015999999996 362.5770992 10 422.5 10 C 482.4229008 10 531 17.835015999999996 531 27.5 C 531 37.164984000000004 482.4229008 45 422.5 45 C 362.5770992 45 314 37.164984000000004 314 27.5 Z" stroke-miterlimit="10" stroke-dasharray=""/></g><g><g><path fill="none" stroke="none"/><text fill="#000000" stroke="none" font-family="Arial" font-size="13px" font-style="normal" font-weight="bold" text-decoration="undefined" x="548.5" y="250.5" text-anchor="middle" dominant-baseline="central" transform="matrix(1 0 0 1 -126 -222)">Consulter liste patients</text></g></g><g><path fill="#C0C0C0" stroke="none" paint-order="stroke fill markers" d=" M 321 98.5 C 321 88.835016 357.936504 81 403.5 81 C 449.063496 81 486 88.835016 486 98.5 C 486 108.164984 449.063496 116 403.5 116 C 357.936504 116 321 108.164984 321 98.5 Z" fill-opacity="0.2"/></g><g><path fill="#ffffff" stroke="none" paint-order="stroke fill markers" d=" M 314 91.5 C 314 81.835016 350.936504 74 396.5 74 C 442.063496 74 479 81.835016 479 91.5 C 479 101.164984 442.063496 109 396.5 109 C 350.936504 109 314 101.164984 314 91.5 Z"/></g><g><path fill="none" stroke="#000000" paint-order="fill stroke markers" d=" M 314 91.5 C 314 81.835016 350.936504 74 396.5 74 C 442.063496 74 479 81.835016 479 91.5 C 479 101.164984 442.063496 109 396.5 109 C 350.936504 109 314 101.164984 314 91.5 Z" stroke-miterlimit="10" stroke-dasharray=""/></g><g><g><path fill="none" stroke="none"/><text fill="#000000" stroke="none" font-family="Arial" font-size="13px" font-style="normal" font-weight="bold" text-decoration="undefined" x="522.5" y="314.5" text-anchor="middle" dominant-baseline="central" transform="matrix(1 0 0 1 -126 -222)">Consulter patient</text></g></g><g><path fill="#C0C0C0" stroke="none" paint-order="stroke fill markers" d=" M 321 154.5 C 321 144.835016 358.8319344 137 405.5 137 C 452.1680656 137 490 144.835016 490 154.5 C 490 164.164984 452.1680656 172 405.5 172 C 358.8319344 172 321 164.164984 321 154.5 Z" fill-opacity="0.2"/></g><g><path fill="#ffffff" stroke="none" paint-order="stroke fill markers" d=" M 314 147.5 C 314 137.835016 351.8319344 130 398.5 130 C 445.1680656 130 483 137.835016 483 147.5 C 483 157.164984 445.1680656 165 398.5 165 C 351.8319344 165 314 157.164984 314 147.5 Z"/></g><g><path fill="none" stroke="#000000" paint-order="fill stroke markers" d=" M 314 147.5 C 314 137.835016 351.8319344 130 398.5 130 C 445.1680656 130 483 137.835016 483 147.5 C 483 157.164984 445.1680656 165 398.5 165 C 351.8319344 165 314 157.164984 314 147.5 Z" stroke-miterlimit="10" stroke-dasharray=""/></g><g><g><path fill="none" stroke="none"/><text fill="#000000" stroke="none" font-family="Arial" font-size="13px" font-style="normal" font-weight="bold" text-decoration="undefined" x="524.5" y="370.5" text-anchor="middle" dominant-baseline="central" transform="matrix(1 0 0 1 -126 -222)">Consulter rapport</text></g></g><g><path fill="#C0C0C0" stroke="none" paint-order="stroke fill markers" d=" M 289 210.5 C 289 200.835016 342.725824 193 409 193 C 475.274176 193 529 200.835016 529 210.5 C 529 220.164984 475.274176 228 409 228 C 342.725824 228 289 220.164984 289 210.5 Z" fill-opacity="0.2"/></g><g><path fill="#ffffff" stroke="none" paint-order="stroke fill markers" d=" M 282 203.5 C 282 193.835016 335.725824 186 402 186 C 468.274176 186 522 193.835016 522 203.5 C 522 213.164984 468.274176 221 402 221 C 335.725824 221 282 213.164984 282 203.5 Z"/></g><g><path fill="none" stroke="#000000" paint-order="fill stroke markers" d=" M 282 203.5 C 282 193.835016 335.725824 186 402 186 C 468.274176 186 522 193.835016 522 203.5 C 522 213.164984 468.274176 221 402 221 C 335.725824 221 282 213.164984 282 203.5 Z" stroke-miterlimit="10" stroke-dasharray=""/></g><g><g><path fill="none" stroke="none"/><text fill="#000000" stroke="none" font-family="Arial" font-size="13px" font-style="normal" font-weight="bold" text-decoration="undefined" x="528" y="426.5" text-anchor="middle" dominant-baseline="central" transform="matrix(1 0 0 1 -126 -222)">Modifier et valider rapport</text></g></g><g><path fill="none" stroke="#000000" paint-order="fill stroke markers" d=" M 147 96 L 347 46" stroke-miterlimit="10" stroke-dasharray=""/></g><g><path fill="none" stroke="#000000" paint-order="fill stroke markers" d=" M 147 109 L 313 97" stroke-miterlimit="10" stroke-dasharray=""/></g><g><path fill="none" stroke="#000000" paint-order="fill stroke markers" d=" M 147 121 L 313 138" stroke-miterlimit="10" stroke-dasharray=""/></g><g><path fill="none" stroke="#000000" paint-order="fill stroke markers" d=" M 147 133 L 336 185" stroke-miterlimit="10" stroke-dasharray=""/></g><g><path fill="#C0C0C0" stroke="none" paint-order="stroke fill markers" d=" M 673 90.5 C 673 80.835016 701.8776304 73 737.5 73 C 773.1223696 73 802 80.835016 802 90.5 C 802 100.164984 773.1223696 108 737.5 108 C 701.8776304 108 673 100.164984 673 90.5 Z" fill-opacity="0.2"/></g><g><path fill="#ffffff" stroke="none" paint-order="stroke fill markers" d=" M 666 83.5 C 666 73.835016 694.8776304 66 730.5 66 C 766.1223696 66 795 73.835016 795 83.5 C 795 93.164984 766.1223696 101 730.5 101 C 694.8776304 101 666 93.164984 666 83.5 Z"/></g><g><path fill="none" stroke="#000000" paint-order="fill stroke markers" d=" M 666 83.5 C 666 73.835016 694.8776304 66 730.5 66 C 766.1223696 66 795 73.835016 795 83.5 C 795 93.164984 766.1223696 101 730.5 101 C 694.8776304 101 666 93.164984 666 83.5 Z" stroke-miterlimit="10" stroke-dasharray=""/></g><g><g><path fill="none" stroke="none"/><text fill="#000000" stroke="none" font-family="Arial" font-size="13px" font-style="normal" font-weight="bold" text-decoration="undefined" x="856.5" y="306.5" text-anchor="middle" dominant-baseline="central" transform="matrix(1 0 0 1 -126 -222)">Se connecter</text></g></g><g><path fill="none" stroke="#000000" paint-order="fill stroke markers" d=" M 527 46 L 665 71" stroke-miterlimit="10" stroke-dasharray="3"/></g><g><path fill="none" stroke="#000000" paint-order="fill stroke markers" d=" M 654.2497126874316 73.33051983412093 L 665 71 L 655.7504725631825 65.04632531997584" stroke-miterlimit="10" stroke-dasharray=""/></g><g><rect fill="#ffffff" stroke="none" x="700" y="244" width="55.65625" height="13" transform="matrix(1 0 0 1 -126 -222)"/></g><g><g><path fill="none" stroke="none"/><text fill="#000000" stroke="none" font-family="Arial" font-size="13px" font-style="normal" font-weight="normal" text-decoration="undefined" x="727.828125" y="250.5" text-anchor="middle" dominant-baseline="central" transform="matrix(1 0 0 1 -126 -222)">«include»</text></g></g><g><path fill="none" stroke="#000000" paint-order="fill stroke markers" d=" M 480 89 L 665 85" stroke-miterlimit="10" stroke-dasharray="3"/></g><g><path fill="none" stroke="#000000" paint-order="fill stroke markers" d=" M 654.9306951399169 89.4282163039656 L 665 85 L 654.7487044745056 81.01114802869552" stroke-miterlimit="10" stroke-dasharray=""/></g><g><rect fill="#ffffff" stroke="none" x="670" y="273" width="55.65625" height="13" transform="matrix(1 0 0 1 -126 -222)"/></g><g><g><path fill="none" stroke="none"/><text fill="#000000" stroke="none" font-family="Arial" font-size="13px" font-style="normal" font-weight="normal" text-decoration="undefined" x="697.828125" y="279.5" text-anchor="middle" dominant-baseline="central" transform="matrix(1 0 0 1 -126 -222)">«include»</text></g></g><g><path fill="none" stroke="#000000" paint-order="fill stroke markers" d=" M 484 130 L 665 96" stroke-miterlimit="10" stroke-dasharray="3"/></g><g><path fill="none" stroke="#000000" paint-order="fill stroke markers" d=" M 655.7891606744755 102.01335504684124 L 665 96 L 654.2348689211981 93.73903718380569" stroke-miterlimit="10" stroke-dasharray=""/></g><g><rect fill="#ffffff" stroke="none" x="667" y="299" width="55.65625" height="13" transform="matrix(1 0 0 1 -126 -222)"/></g><g><g><path fill="none" stroke="none"/><text fill="#000000" stroke="none" font-family="Arial" font-size="13px" font-style="normal" font-weight="normal" text-decoration="undefined" x="694.828125" y="305.5" text-anchor="middle" dominant-baseline="central" transform="matrix(1 0 0 1 -126 -222)">«include»</text></g></g><g><path fill="none" stroke="#000000" paint-order="fill stroke markers" d=" M 451 185 L 678 102" stroke-miterlimit="10" stroke-dasharray="3"/></g><g><path fill="none" stroke="#000000" paint-order="fill stroke markers" d=" M 669.9009014048656 109.44342676099473 L 678 102 L 667.0097749239172 101.53636999984678" stroke-miterlimit="10" stroke-dasharray=""/></g><g><rect fill="#ffffff" stroke="none" x="652" y="330" width="55.65625" height="13" transform="matrix(1 0 0 1 -126 -222)"/></g><g><g><path fill="none" stroke="none"/><text fill="#000000" stroke="none" font-family="Arial" font-size="13px" font-style="normal" font-weight="normal" text-decoration="undefined" x="679.828125" y="336.5" text-anchor="middle" dominant-baseline="central" transform="matrix(1 0 0 1 -126 -222)">«include»</text></g></g></g></svg>