<svg version="1.1" xmlns="http://www.w3.org/2000/svg" xmlns:xlink="http://www.w3.org/1999/xlink" width="629" height="162"><defs/><g><g><path fill="#ffffff" stroke="none" paint-order="stroke fill markers" d=" M 39.63119140625 54.85000000000002 C 39.63119140625 49.96227952000004 43.588993774249985 46 48.47119140625 46 C 53.353389038250015 46 57.31119140625 49.96227952000004 57.31119140625 54.85000000000002 C 57.31119140625 59.73772048000001 53.353389038250015 63.69999999999999 48.47119140625 63.69999999999999 C 43.588993774249985 63.69999999999999 39.63119140625 59.73772048000001 39.63119140625 54.85000000000002 Z"/></g><g><path fill="none" stroke="#000000" paint-order="fill stroke markers" d=" M 39.63119140625 54.85000000000002 C 39.63119140625 49.96227952000004 43.588993774249985 46 48.47119140625 46 C 53.353389038250015 46 57.31119140625 49.96227952000004 57.31119140625 54.85000000000002 C 57.31119140625 59.73772048000001 53.353389038250015 63.69999999999999 48.47119140625 63.69999999999999 C 43.588993774249985 63.69999999999999 39.63119140625 59.73772048000001 39.63119140625 54.85000000000002 Z" stroke-miterlimit="10" stroke-dasharray=""/></g><g><path fill="none" stroke="#000000" paint-order="fill stroke markers" d=" M 48.47119140625 63.69999999999999 L 48.47119140625 81.30000000000001" stroke-miterlimit="10" stroke-dasharray=""/></g><g><path fill="none" stroke="#000000" paint-order="fill stroke markers" d=" M 39.111191406249986 70.30000000000001 L 57.831191406250014 70.30000000000001" stroke-miterlimit="10" stroke-dasharray=""/></g><g><path fill="none" stroke="#000000" paint-order="fill stroke markers" d=" M 48.47119140625 81.30000000000001 L 35.47119140625 99" stroke-miterlimit="10" stroke-dasharray=""/></g><g><path fill="none" stroke="#000000" paint-order="fill stroke markers" d=" M 48.47119140625 81.30000000000001 L 61.47119140625 99" stroke-miterlimit="10" stroke-dasharray=""/></g><g><g><path fill="none" stroke="none"/><text fill="#000000" stroke="none" font-family="Arial" font-size="13px" font-style="normal" font-weight="bold" text-decoration="undefined" x="182.97119140625" y="364.5" text-anchor="middle" dominant-baseline="central" transform="matrix(1 0 0 1 -134 -251)">Technicien</text></g></g><g><path fill="#C0C0C0" stroke="none" paint-order="stroke fill markers" d=" M 281 37.5 C 281 27.835015999999996 313.2354944 20 353 20 C 392.7645056 20 425 27.835015999999996 425 37.5 C 425 47.164984000000004 392.7645056 55 353 55 C 313.2354944 55 281 47.164984000000004 281 37.5 Z" fill-opacity="0.2"/></g><g><path fill="#ffffff" stroke="none" paint-order="stroke fill markers" d=" M 274 30.5 C 274 20.835015999999996 306.2354944 13 346 13 C 385.7645056 13 418 20.835015999999996 418 30.5 C 418 40.164984000000004 385.7645056 48 346 48 C 306.2354944 48 274 40.164984000000004 274 30.5 Z"/></g><g><path fill="none" stroke="#000000" paint-order="fill stroke markers" d=" M 274 30.5 C 274 20.835015999999996 306.2354944 13 346 13 C 385.7645056 13 418 20.835015999999996 418 30.5 C 418 40.164984000000004 385.7645056 48 346 48 C 306.2354944 48 274 40.164984000000004 274 30.5 Z" stroke-miterlimit="10" stroke-dasharray=""/></g><g><g><path fill="none" stroke="none"/><text fill="#000000" stroke="none" font-family="Arial" font-size="13px" font-style="normal" font-weight="bold" text-decoration="undefined" x="480" y="282.5" text-anchor="middle" dominant-baseline="central" transform="matrix(1 0 0 1 -134 -251)">Ajouter Patient</text></g></g><g><path fill="#C0C0C0" stroke="none" paint-order="stroke fill markers" d=" M 257 141.5 C 257 131.835016 292.5933584 124 336.5 124 C 380.40664160000006 124 416 131.835016 416 141.5 C 416 151.164984 380.40664160000006 159 336.5 159 C 292.5933584 159 257 151.164984 257 141.5 Z" fill-opacity="0.2"/></g><g><path fill="#ffffff" stroke="none" paint-order="stroke fill markers" d=" M 250 134.5 C 250 124.835016 285.5933584 117 329.5 117 C 373.4066416 117 409 124.835016 409 134.5 C 409 144.164984 373.4066416 152 329.5 152 C 285.5933584 152 250 144.164984 250 134.5 Z"/></g><g><path fill="none" stroke="#000000" paint-order="fill stroke markers" d=" M 250 134.5 C 250 124.835016 285.5933584 117 329.5 117 C 373.4066416 117 409 124.835016 409 134.5 C 409 144.164984 373.4066416 152 329.5 152 C 285.5933584 152 250 144.164984 250 134.5 Z" stroke-miterlimit="10" stroke-dasharray=""/></g><g><g><path fill="none" stroke="none"/><text fill="#000000" stroke="none" font-family="Arial" font-size="13px" font-style="normal" font-weight="bold" text-decoration="undefined" x="463.5" y="386.5" text-anchor="middle" dominant-baseline="central" transform="matrix(1 0 0 1 -134 -251)">Ajouter Imagerie</text></g></g><g><path fill="none" stroke="#000000" paint-order="fill stroke markers" d=" M 343 49 L 332 116" stroke-miterlimit="10" stroke-dasharray="3"/></g><g><path fill="none" stroke="#000000" paint-order="fill stroke markers" d=" M 329.4925502688682 105.28959870752516 L 332 116 L 337.80036267477044 106.65356790849415" stroke-miterlimit="10" stroke-dasharray=""/></g><g><rect fill="#ffffff" stroke="none" x="473" y="331" width="55.65625" height="13" transform="matrix(1 0 0 1 -134 -251)"/></g><g><g><path fill="none" stroke="none"/><text fill="#000000" stroke="none" font-family="Arial" font-size="13px" font-style="normal" font-weight="normal" text-decoration="undefined" x="500.828125" y="337.5" text-anchor="middle" dominant-baseline="central" transform="matrix(1 0 0 1 -134 -251)">«include»</text></g></g><g><path fill="none" stroke="#000000" paint-order="fill stroke markers" d=" M 88 78 L 273 43" stroke-miterlimit="10" stroke-dasharray=""/></g><g><path fill="none" stroke="#000000" paint-order="fill stroke markers" d=" M 88 92 L 249 120" stroke-miterlimit="10" stroke-dasharray=""/></g><g><path fill="#C0C0C0" stroke="none" paint-order="stroke fill markers" d=" M 497 69.5 C 497 59.835015999999996 525.8776304 52 561.5 52 C 597.1223696 52 626 59.835015999999996 626 69.5 C 626 79.164984 597.1223696 87 561.5 87 C 525.8776304 87 497 79.164984 497 69.5 Z" fill-opacity="0.2"/></g><g><path fill="#ffffff" stroke="none" paint-order="stroke fill markers" d=" M 490 62.5 C 490 52.835015999999996 518.8776304 45 554.5 45 C 590.1223696 45 619 52.835015999999996 619 62.5 C 619 72.164984 590.1223696 80 554.5 80 C 518.8776304 80 490 72.164984 490 62.5 Z"/></g><g><path fill="none" stroke="#000000" paint-order="fill stroke markers" d=" M 490 62.5 C 490 52.835015999999996 518.8776304 45 554.5 45 C 590.1223696 45 619 52.835015999999996 619 62.5 C 619 72.164984 590.1223696 80 554.5 80 C 518.8776304 80 490 72.164984 490 62.5 Z" stroke-miterlimit="10" stroke-dasharray=""/></g><g><g><path fill="none" stroke="none"/><text fill="#000000" stroke="none" font-family="Arial" font-size="13px" font-style="normal" font-weight="bold" text-decoration="undefined" x="688.5" y="314.5" text-anchor="middle" dominant-baseline="central" transform="matrix(1 0 0 1 -134 -251)">Se connecter</text></g></g><g><path fill="none" stroke="#000000" paint-order="fill stroke markers" d=" M 419 41 L 489 52" stroke-miterlimit="10" stroke-dasharray="3"/></g><g><path fill="none" stroke="#000000" paint-order="fill stroke markers" d=" M 478.3070495566344 54.58085466768836 L 489 52 L 479.6140023938251 46.26388206738392" stroke-miterlimit="10" stroke-dasharray=""/></g><g><rect fill="#ffffff" stroke="none" x="566" y="261" width="55.65625" height="13" transform="matrix(1 0 0 1 -134 -251)"/></g><g><g><path fill="none" stroke="none"/><text fill="#000000" stroke="none" font-family="Arial" font-size="13px" font-style="normal" font-weight="normal" text-decoration="undefined" x="593.828125" y="267.5" text-anchor="middle" dominant-baseline="central" transform="matrix(1 0 0 1 -134 -251)">«include»</text></g></g><g><path fill="none" stroke="#000000" paint-order="fill stroke markers" d=" M 385 116 L 495 81" stroke-miterlimit="10" stroke-dasharray="3"/></g><g><path fill="none" stroke="#000000" paint-order="fill stroke markers" d=" M 486.5920663132737 88.09271817567935 L 495 81 L 484.0393839552811 80.07000219341688" stroke-miterlimit="10" stroke-dasharray=""/></g><g><rect fill="#ffffff" stroke="none" x="538" y="314" width="55.65625" height="13" transform="matrix(1 0 0 1 -134 -251)"/></g><g><g><path fill="none" stroke="none"/><text fill="#000000" stroke="none" font-family="Arial" font-size="13px" font-style="normal" font-weight="normal" text-decoration="undefined" x="565.828125" y="320.5" text-anchor="middle" dominant-baseline="central" transform="matrix(1 0 0 1 -134 -251)">«include»</text></g></g></g></svg>